<?xml version="1.0" encoding="UTF-8"?>
<!DOCTYPE svg PUBLIC "-//W3C//DTD SVG 1.1//EN" "http://www.w3.org/Graphics/SVG/1.1/DTD/svg11.dtd">
<svg version="1.2" width="127mm" height="127mm" viewBox="0 0 12700 12700" preserveAspectRatio="xMidYMid" fill-rule="evenodd" stroke-width="28.222" stroke-linejoin="round" xmlns="http://www.w3.org/2000/svg" xmlns:ooo="http://xml.openoffice.org/svg/export" xmlns:xlink="http://www.w3.org/1999/xlink" xmlns:presentation="http://sun.com/xmlns/staroffice/presentation" xmlns:smil="http://www.w3.org/2001/SMIL20/" xmlns:anim="urn:oasis:names:tc:opendocument:xmlns:animation:1.0" xml:space="preserve">
 <defs class="ClipPathGroup">
  <clipPath id="presentation_clip_path" clipPathUnits="userSpaceOnUse">
   <rect x="0" y="0" width="12700" height="12700"/>
  </clipPath>
  <clipPath id="presentation_clip_path_shrink" clipPathUnits="userSpaceOnUse">
   <rect x="12" y="12" width="12675" height="12675"/>
  </clipPath>
 </defs>
 <defs class="TextShapeIndex">
  <g ooo:slide="id1" ooo:id-list="id3 id4 id5 id6"/>
 </defs>
 <defs class="EmbeddedBulletChars">
  <g id="bullet-char-template-57356" transform="scale(0.00048828125,-0.00048828125)">
   <path d="M 580,1141 L 1163,571 580,0 -4,571 580,1141 Z"/>
  </g>
  <g id="bullet-char-template-57354" transform="scale(0.00048828125,-0.00048828125)">
   <path d="M 8,1128 L 1137,1128 1137,0 8,0 8,1128 Z"/>
  </g>
  <g id="bullet-char-template-10146" transform="scale(0.00048828125,-0.00048828125)">
   <path d="M 174,0 L 602,739 174,1481 1456,739 174,0 Z M 1358,739 L 309,1346 659,739 1358,739 Z"/>
  </g>
  <g id="bullet-char-template-10132" transform="scale(0.00048828125,-0.00048828125)">
   <path d="M 2015,739 L 1276,0 717,0 1260,543 174,543 174,936 1260,936 717,1481 1274,1481 2015,739 Z"/>
  </g>
  <g id="bullet-char-template-10007" transform="scale(0.00048828125,-0.00048828125)">
   <path d="M 0,-2 C -7,14 -16,27 -25,37 L 356,567 C 262,823 215,952 215,954 215,979 228,992 255,992 264,992 276,990 289,987 310,991 331,999 354,1012 L 381,999 492,748 772,1049 836,1024 860,1049 C 881,1039 901,1025 922,1006 886,937 835,863 770,784 769,783 710,716 594,584 L 774,223 C 774,196 753,168 711,139 L 727,119 C 717,90 699,76 672,76 641,76 570,178 457,381 L 164,-76 C 142,-110 111,-127 72,-127 30,-127 9,-110 8,-76 1,-67 -2,-52 -2,-32 -2,-23 -1,-13 0,-2 Z"/>
  </g>
  <g id="bullet-char-template-10004" transform="scale(0.00048828125,-0.00048828125)">
   <path d="M 285,-33 C 182,-33 111,30 74,156 52,228 41,333 41,471 41,549 55,616 82,672 116,743 169,778 240,778 293,778 328,747 346,684 L 369,508 C 377,444 397,411 428,410 L 1163,1116 C 1174,1127 1196,1133 1229,1133 1271,1133 1292,1118 1292,1087 L 1292,965 C 1292,929 1282,901 1262,881 L 442,47 C 390,-6 338,-33 285,-33 Z"/>
  </g>
  <g id="bullet-char-template-9679" transform="scale(0.00048828125,-0.00048828125)">
   <path d="M 813,0 C 632,0 489,54 383,161 276,268 223,411 223,592 223,773 276,916 383,1023 489,1130 632,1184 813,1184 992,1184 1136,1130 1245,1023 1353,916 1407,772 1407,592 1407,412 1353,268 1245,161 1136,54 992,0 813,0 Z"/>
  </g>
  <g id="bullet-char-template-8226" transform="scale(0.00048828125,-0.00048828125)">
   <path d="M 346,457 C 273,457 209,483 155,535 101,586 74,649 74,723 74,796 101,859 155,911 209,963 273,989 346,989 419,989 480,963 531,910 582,859 608,796 608,723 608,648 583,586 532,535 482,483 420,457 346,457 Z"/>
  </g>
  <g id="bullet-char-template-8211" transform="scale(0.00048828125,-0.00048828125)">
   <path d="M -4,459 L 1135,459 1135,606 -4,606 -4,459 Z"/>
  </g>
  <g id="bullet-char-template-61548" transform="scale(0.00048828125,-0.00048828125)">
   <path d="M 173,740 C 173,903 231,1043 346,1159 462,1274 601,1332 765,1332 928,1332 1067,1274 1183,1159 1299,1043 1357,903 1357,740 1357,577 1299,437 1183,322 1067,206 928,148 765,148 601,148 462,206 346,322 231,437 173,577 173,740 Z"/>
  </g>
 </defs>
 <defs class="TextEmbeddedBitmaps"/>
 <g>
  <g id="id2" class="Master_Slide">
   <g id="bg-id2" class="Background"/>
   <g id="bo-id2" class="BackgroundObjects"/>
  </g>
 </g>
 <g class="SlideGroup">
  <g>
   <g id="container-id1">
    <g id="id1" class="Slide" clip-path="url(#presentation_clip_path)">
     <g class="Page">
      <g class="Group">
       <g class="Group">
        <g class="com.sun.star.drawing.ClosedBezierShape">
         <g id="id3">
          <rect class="BoundingBox" stroke="none" fill="none" x="575" y="2671" width="5472" height="7694"/>
          <path fill="rgb(0,0,0)" stroke="none" d="M 4455,3475 C 4045,3475 3662,3541 3305,3672 2949,3803 2639,3999 2377,4260 2115,4520 1908,4843 1756,5229 1605,5615 1529,6065 1529,6579 1529,7089 1599,7531 1740,7906 1880,8281 2080,8591 2338,8837 2597,9083 2908,9264 3272,9383 3636,9501 4041,9560 4488,9560 4610,9560 4739,9554 4876,9541 5013,9528 5150,9509 5289,9485 5428,9461 5562,9433 5694,9402 5825,9371 5942,9337 6045,9300 L 6045,10098 C 5827,10183 5574,10248 5286,10294 4998,10340 4703,10364 4400,10364 3783,10364 3236,10278 2759,10106 2283,9934 1883,9687 1560,9366 1236,9045 992,8652 825,8188 659,7725 576,7199 576,6612 576,6036 664,5505 839,5022 1015,4538 1268,4122 1598,3775 1929,3427 2330,3157 2801,2963 3272,2769 3801,2672 4389,2672 4544,2672 4697,2678 4848,2691 5000,2704 5145,2723 5283,2747 5422,2771 5550,2799 5669,2833 5787,2866 5888,2901 5973,2938 L 5973,3736 C 5752,3662 5510,3600 5247,3550 4985,3500 4721,3475 4455,3475 Z"/>
         </g>
        </g>
        <g class="com.sun.star.drawing.ClosedBezierShape">
         <g id="id4">
          <rect class="BoundingBox" stroke="none" fill="none" x="7238" y="2671" width="4878" height="7694"/>
          <path fill="rgb(0,0,0)" stroke="none" d="M 8158,4772 C 8158,4990 8203,5170 8291,5312 8380,5455 8499,5572 8649,5664 8798,5757 8972,5832 9170,5892 9367,5951 9573,6006 9787,6058 10076,6128 10359,6206 10638,6291 10917,6376 11165,6493 11383,6642 11601,6792 11778,6987 11913,7227 12047,7467 12115,7776 12115,8152 12115,8537 12044,8868 11901,9147 11759,9426 11562,9655 11309,9834 11055,10013 10753,10146 10403,10233 10052,10320 9667,10364 9250,10364 9058,10364 8861,10352 8660,10328 8458,10304 8266,10271 8083,10231 7901,10190 7735,10144 7587,10092 7440,10040 7323,9989 7238,9937 L 7238,9111 C 7371,9178 7521,9239 7687,9294 7853,9349 8025,9397 8203,9435 8380,9474 8559,9505 8740,9527 8921,9549 9091,9560 9250,9560 9508,9560 9755,9538 9990,9494 10224,9449 10430,9375 10608,9272 10785,9168 10925,9027 11029,8848 11132,8669 11184,8444 11184,8175 11184,7953 11139,7770 11048,7626 10958,7482 10837,7363 10685,7269 10534,7174 10359,7098 10161,7039 9964,6980 9756,6924 9538,6872 9250,6806 8968,6731 8693,6648 8418,6565 8172,6449 7956,6302 7740,6154 7566,5964 7435,5731 7304,5498 7238,5201 7238,4839 7238,4462 7305,4138 7438,3866 7571,3595 7752,3370 7981,3193 8210,3016 8478,2884 8784,2799 9091,2714 9418,2672 9765,2672 10161,2672 10529,2710 10871,2786 11212,2861 11526,2960 11810,3082 L 11810,3919 C 11503,3789 11187,3684 10860,3603 10533,3522 10183,3479 9810,3475 9529,3475 9285,3506 9078,3567 8871,3628 8699,3715 8563,3827 8426,3940 8324,4077 8258,4237 8191,4398 8158,4576 8158,4772 Z"/>
         </g>
        </g>
       </g>
       <g class="Group">
        <g class="com.sun.star.drawing.ClosedBezierShape">
         <g id="id5">
          <rect class="BoundingBox" stroke="none" fill="none" x="3348" y="5084" width="816" height="2806"/>
          <path fill="rgb(0,0,0)" stroke="none" d="M 3756,7075 C 3867,7075 3963,7114 4042,7191 4122,7269 4162,7366 4162,7482 4162,7598 4122,7695 4042,7772 3963,7850 3867,7889 3756,7889 3644,7889 3549,7850 3469,7772 3389,7695 3349,7598 3349,7482 3349,7366 3389,7269 3469,7191 3549,7114 3644,7075 3756,7075 Z M 3756,5085 C 3867,5085 3963,5123 4042,5201 4122,5278 4162,5375 4162,5491 4162,5608 4122,5705 4042,5782 3963,5860 3867,5898 3756,5898 3644,5898 3549,5860 3469,5782 3389,5705 3349,5608 3349,5491 3349,5375 3389,5278 3469,5201 3549,5123 3644,5085 3756,5085 Z"/>
         </g>
        </g>
        <g class="com.sun.star.drawing.ClosedBezierShape">
         <g id="id6">
          <rect class="BoundingBox" stroke="none" fill="none" x="5164" y="5084" width="816" height="2806"/>
          <path fill="rgb(0,0,0)" stroke="none" d="M 5572,7075 C 5683,7075 5779,7114 5858,7191 5938,7269 5978,7366 5978,7482 5978,7598 5938,7695 5858,7772 5779,7850 5683,7889 5572,7889 5460,7889 5365,7850 5285,7772 5205,7695 5165,7598 5165,7482 5165,7366 5205,7269 5285,7191 5365,7114 5460,7075 5572,7075 Z M 5572,5085 C 5683,5085 5779,5123 5858,5201 5938,5278 5978,5375 5978,5491 5978,5608 5938,5705 5858,5782 5779,5860 5683,5898 5572,5898 5460,5898 5365,5860 5285,5782 5205,5705 5165,5608 5165,5491 5165,5375 5205,5278 5285,5201 5365,5123 5460,5085 5572,5085 Z"/>
         </g>
        </g>
       </g>
      </g>
     </g>
    </g>
   </g>
  </g>
 </g>
</svg>