<?xml version="1.0" encoding="UTF-8" standalone="no"?>
<!-- Created with Inkscape (http://www.inkscape.org/) -->

<svg
   xmlns:dc="http://purl.org/dc/elements/1.1/"
   xmlns:cc="http://creativecommons.org/ns#"
   xmlns:rdf="http://www.w3.org/1999/02/22-rdf-syntax-ns#"
   xmlns:svg="http://www.w3.org/2000/svg"
   xmlns="http://www.w3.org/2000/svg"
   xmlns:sodipodi="http://sodipodi.sourceforge.net/DTD/sodipodi-0.dtd"
   xmlns:inkscape="http://www.inkscape.org/namespaces/inkscape"
   id="svg2"
   version="1.1"
   inkscape:version="0.48.2 r9819"
   width="220"
   height="385"
   sodipodi:docname="Question_mark_grey.png">
  <metadata
     id="metadata8">
    <rdf:RDF>
      <cc:Work
         rdf:about="">
        <dc:format>image/svg+xml</dc:format>
        <dc:type
           rdf:resource="http://purl.org/dc/dcmitype/StillImage" />
        <dc:title></dc:title>
      </cc:Work>
    </rdf:RDF>
  </metadata>
  <defs
     id="defs6" />
  <sodipodi:namedview
     pagecolor="#ffffff"
     bordercolor="#666666"
     borderopacity="1"
     objecttolerance="10"
     gridtolerance="10"
     guidetolerance="10"
     inkscape:pageopacity="0"
     inkscape:pageshadow="2"
     inkscape:window-width="1280"
     inkscape:window-height="1003"
     id="namedview4"
     showgrid="false"
     inkscape:zoom="1.225974"
     inkscape:cx="255.76086"
     inkscape:cy="171.09787"
     inkscape:window-x="-4"
     inkscape:window-y="-4"
     inkscape:window-maximized="1"
     inkscape:current-layer="svg2" />
  <g
     style="font-size:495px;font-style:normal;font-weight:normal;line-height:125%;letter-spacing:0px;word-spacing:0px;fill:#aeaeae;fill-opacity:1;stroke:none;font-family:Balkeno;-inkscape-font-specification:Balkeno"
     id="text2987">
    <path
       d="m 115.81991,280.15637 -9.90967,0 c 1.12783,-20.30263 3.66567,-37.10071 7.61353,-50.39429 3.94764,-13.29331 12.12512,-31.78328 24.53247,-55.46997 9.66783,-18.2078 15.952,-32.18606 18.85254,-41.93481 2.90023,-9.7483 4.35043,-19.61768 4.35058,-29.60815 -1.5e-4,-20.463596 -5.43838,-36.737994 -16.31469,-48.823247 -10.8766,-12.084645 -24.21032,-18.127119 -40.00122,-18.127441 -14.018644,3.22e-4 -25.056231,3.303541 -33.112798,9.909668 -8.056698,6.60675 -12.085014,13.777153 -12.084961,21.51123 -5.3e-5,5.962199 2.416936,13.293734 7.250977,21.994629 4.833918,8.701432 7.250908,15.307871 7.250976,19.819341 -6.8e-5,5.80102 -1.853093,10.67528 -5.559082,14.6228 -3.706113,3.94798 -8.217827,5.92186 -13.535156,5.92163 -6.76762,2.3e-4 -12.930944,-3.34328 -18.48999,-10.03052 -5.559107,-6.68677 -8.338645,-15.99218 -8.338623,-27.916259 -2.2e-5,-18.207723 7.814911,-34.320988 23.444824,-48.339843 15.629822,-14.018227 36.818765,-21.027497 63.566893,-21.027832 33.19322,3.35e-4 57.60482,9.668294 73.23486,29.003906 11.60137,14.179979 17.40215,29.890413 17.40235,47.131348 -2e-4,11.76294 -2.61861,23.84789 -7.85523,36.25488 -5.237,12.40744 -15.18694,26.98994 -29.84985,43.74756 -23.3644,26.42593 -37.66492,45.15761 -42.90161,56.19507 -5.23693,11.03771 -8.4193,26.22446 -9.54712,45.5603 z m -3.38379,29.97071 c 7.57313,4e-5 13.97815,2.61845 19.21509,7.85522 5.23668,5.23685 7.85509,11.64187 7.85522,19.21509 -1.3e-4,7.41212 -2.65882,13.73658 -7.97607,18.97339 -5.3175,5.23681 -11.68224,7.85521 -19.09424,7.85522 -7.41221,-1e-5 -13.736664,-2.61841 -18.973388,-7.85522 -5.236898,-5.23681 -7.855304,-11.56127 -7.855224,-18.97339 -8e-5,-7.57322 2.618326,-13.97824 7.855224,-19.21509 5.236724,-5.23677 11.561178,-7.85518 18.973388,-7.85522 z"
       style="font-variant:normal;font-stretch:normal;fill:#aeaeae;font-family:Times New Roman;-inkscape-font-specification:Times New Roman"
       id="path3016" />
  </g>
</svg>
