<?xml version="1.0" standalone="no"?>
<!DOCTYPE svg PUBLIC "-//W3C//DTD SVG 20010904//EN"
 "http://www.w3.org/TR/2001/REC-SVG-20010904/DTD/svg10.dtd">
<svg version="1.0" xmlns="http://www.w3.org/2000/svg"
 width="610.000000pt" height="610.000000pt" viewBox="0 0 610.000000 610.000000"
 preserveAspectRatio="xMidYMid meet">
<metadata>
Created by potrace 1.11, written by Peter Selinger 2001-2013
</metadata>
<g transform="translate(0.000000,610.000000) scale(0.100000,-0.100000)"
fill="#000000" stroke="none">
<path d="M1770 4834 c-406 -56 -763 -228 -1030 -494 -260 -261 -427 -598 -500
-1010 -28 -158 -38 -500 -21 -676 34 -341 132 -634 292 -875 83 -125 263 -305
389 -388 231 -154 474 -243 795 -292 186 -29 556 -32 745 -6 134 19 296 54
398 88 l62 21 0 194 c0 107 -2 194 -4 194 -2 0 -64 -15 -137 -34 -380 -97
-733 -112 -1057 -46 -575 119 -926 512 -1007 1127 -17 133 -20 430 -4 553 32
261 116 496 247 695 60 91 197 233 293 305 301 224 742 315 1194 244 102 -16
301 -61 388 -88 l47 -15 0 198 0 197 -47 17 c-87 30 -197 57 -318 78 -160 28
-567 36 -725 13z"/>
<path d="M4525 4844 c-488 -68 -781 -251 -941 -587 -129 -273 -124 -694 13
-926 51 -85 169 -210 251 -265 177 -117 294 -159 802 -286 376 -95 507 -149
619 -254 108 -103 149 -192 158 -346 21 -370 -191 -608 -612 -685 -140 -26
-423 -31 -585 -11 -231 29 -450 83 -618 152 -48 19 -95 38 -104 41 -17 5 -18
-9 -18 -196 l0 -201 48 -24 c121 -61 343 -121 582 -157 190 -29 524 -32 703
-5 597 87 941 358 1043 822 24 108 24 379 0 483 -37 166 -97 272 -226 401
-182 182 -310 237 -901 390 -418 109 -540 160 -655 274 -133 133 -174 320
-118 541 122 477 824 593 1669 276 l100 -38 3 200 c1 111 -2 205 -7 210 -14
14 -252 94 -362 122 -214 54 -318 67 -574 70 -132 2 -253 1 -270 -1z"/>
<path d="M1709 3657 c-123 -46 -175 -175 -116 -288 73 -137 281 -137 354 0 49
93 19 210 -68 263 -53 34 -121 43 -170 25z"/>
<path d="M2599 3657 c-123 -46 -175 -175 -116 -288 73 -137 281 -137 354 0 49
93 19 210 -68 263 -53 34 -121 43 -170 25z"/>
<path d="M1705 2678 c-108 -39 -165 -168 -121 -271 17 -39 71 -92 109 -106 39
-15 121 -14 160 2 45 19 105 89 113 132 24 131 -58 243 -185 251 -25 2 -59 -1
-76 -8z"/>
<path d="M2595 2678 c-108 -39 -165 -168 -121 -271 17 -39 71 -92 109 -106 39
-15 121 -14 160 2 45 19 105 89 113 132 24 131 -58 243 -185 251 -25 2 -59 -1
-76 -8z"/>
</g>
</svg>
